<svg width="29" height="29" viewBox="0 0 29 29" fill="none" xmlns="http://www.w3.org/2000/svg">
<g clip-path="url(#clip0_401_13)">
<path fill-rule="evenodd" clip-rule="evenodd" d="M5.08531 4.59776C3.53931 6.14476 3.53931 8.63376 3.53931 13.6118V14.4918C3.53931 19.4698 3.53931 21.9588 5.08531 23.5048C6.63131 25.0508 9.12131 25.0518 14.0993 25.0518H14.9793C19.9573 25.0518 22.4463 25.0518 23.9923 23.5048C25.5383 21.9578 25.5393 19.4698 25.5393 14.4918V13.6118C25.5393 8.63376 25.5393 6.14476 23.9923 4.59776C22.4453 3.05076 19.9573 3.05176 14.9793 3.05176H14.0993C9.12131 3.05176 6.63231 3.05176 5.08531 4.59776ZM7.23931 9.75176C7.35931 15.4988 10.2233 18.9518 15.2453 18.9518H15.5303V15.6638C17.3763 15.8478 18.7713 17.2018 19.3313 18.9518H21.9393C21.2233 16.3368 19.3413 14.8908 18.1653 14.3378C19.3403 13.6568 20.9933 11.9988 21.3883 9.75176H19.0193C18.5053 11.5748 16.9813 13.2328 15.5303 13.3898V9.75176H13.1613V16.1248C11.6923 15.7558 9.83731 13.9698 9.75531 9.75176H7.23931Z" fill="black"/>
</g>
<defs>
<clipPath id="clip0_401_13">
<rect width="28" height="28" fill="white" transform="translate(0.539307 0.0517578)"/>
</clipPath>
</defs>
</svg>
